<?xml version="1.0" encoding="UTF-8"?>
<svg version="1.1" xmlns="http://www.w3.org/2000/svg" width="630" height="303">
<path d="M0 0 C5.27720667 4.1595141 9.50905829 8.26333369 13.0390625 13.984375 C13.998125 12.994375 13.998125 12.994375 14.9765625 11.984375 C15.99548823 10.98243136 17.01660682 9.98271616 18.0390625 8.984375 C18.6475 8.36820313 19.2559375 7.75203125 19.8828125 7.1171875 C30.12864444 -2.70810656 42.32260131 -7.78368008 56.4765625 -8.265625 C71.42860233 -7.8133391 83.82982492 -3.53348665 94.40625 7.09765625 C104.52082112 18.18766821 108.22297792 32.51193007 108.15258789 47.28466797 C108.15273392 48.09509048 108.15287994 48.905513 108.1530304 49.74049377 C108.15233721 52.4025445 108.14457273 55.06452409 108.13671875 57.7265625 C108.13485246 59.57886721 108.13342955 61.43117241 108.13243103 63.28347778 C108.12862247 68.1463356 108.11880642 73.00916331 108.10772705 77.87200928 C108.09567337 83.71327085 108.09110278 89.55454252 108.08527374 95.39581299 C108.07559374 104.2586879 108.05642556 113.12149681 108.0390625 121.984375 C94.8390625 121.984375 81.6390625 121.984375 68.0390625 121.984375 C67.98298828 114.01990234 67.98298828 114.01990234 67.92578125 105.89453125 C67.89548173 102.51754655 67.86432096 99.14061329 67.83007812 95.76367188 C67.7758865 90.41140428 67.7247716 85.05923844 67.69262695 79.70678711 C67.66649155 75.38831203 67.62601787 71.07018139 67.57587624 66.7519207 C67.55927642 65.10987085 67.54771948 63.46776151 67.54144859 61.82563972 C67.50094641 52.18877728 67.3830502 43.77204603 62.4140625 35.171875 C56.24447493 29.48936013 49.50711697 28.25529294 41.265625 28.53515625 C34.79535561 29.43598068 29.92320656 31.91181654 25.5390625 36.734375 C21.25828513 46.00939264 21.69813413 55.84585677 21.625 65.83203125 C21.60626185 67.45585586 21.58668652 69.07967101 21.5663147 70.70347595 C21.51526678 74.94972113 21.47549587 79.19599779 21.43817139 83.44238281 C21.39795906 87.78653575 21.34694585 92.13056086 21.296875 96.47460938 C21.20044 104.97777684 21.11593288 113.48100825 21.0390625 121.984375 C15.50317717 122.00902275 9.9673235 122.02720996 4.43139648 122.03930664 C2.5466252 122.04434744 0.66185785 122.05117998 -1.22290039 122.05981445 C-3.92595386 122.07189117 -6.62895581 122.07760568 -9.33203125 122.08203125 C-10.60390541 122.08977318 -10.60390541 122.08977318 -11.901474 122.09767151 C-13.92164818 122.09786695 -15.94171684 122.04643711 -17.9609375 121.984375 C-19.62628443 120.31902807 -19.09037043 118.29814167 -19.10438538 116.07341003 C-19.10385666 115.37113785 -19.10332794 114.66886566 -19.1027832 113.9453125 C-19.10625763 113.20859818 -19.10973206 112.47188385 -19.11331177 111.71284485 C-19.12068365 110.10645305 -19.12602136 108.50005096 -19.12960243 106.89364624 C-19.13675789 104.34543589 -19.15242084 101.79741924 -19.17094421 99.24926758 C-19.22343252 92.00165594 -19.27132071 84.75414492 -19.28686523 77.50634766 C-19.29699004 73.07645746 -19.32643688 68.64704645 -19.36818504 64.21734619 C-19.38044577 62.53342324 -19.38562536 60.84943241 -19.38338661 59.16546631 C-19.16659872 46.48787499 -19.16659872 46.48787499 -23.9609375 34.984375 C-25.82218673 33.00197973 -25.82218673 33.00197973 -27.9609375 31.984375 C-28.6209375 31.613125 -29.2809375 31.241875 -29.9609375 30.859375 C-36.1046963 28.17148053 -43.59368677 27.96668538 -50.08984375 29.48046875 C-55.82821639 31.75271027 -60.02641228 34.94099672 -62.60083008 40.57006836 C-64.89665909 47.9583219 -64.44379607 55.82706207 -64.47265625 63.48828125 C-64.48952464 65.17936998 -64.50767775 66.87044633 -64.52705383 68.56150818 C-64.57432575 72.98532239 -64.60428201 77.40908642 -64.63049316 81.83306885 C-64.66568685 87.15557527 -64.722634 92.47788907 -64.77588654 97.80023956 C-64.8541327 105.86159274 -64.90494023 113.92269841 -64.9609375 121.984375 C-78.1609375 121.984375 -91.3609375 121.984375 -104.9609375 121.984375 C-104.9609375 79.744375 -104.9609375 37.504375 -104.9609375 -6.015625 C-91.7609375 -6.015625 -78.5609375 -6.015625 -64.9609375 -6.015625 C-64.4659375 -0.075625 -64.4659375 -0.075625 -63.9609375 5.984375 C-62.5790625 4.7675 -61.1971875 3.550625 -59.7734375 2.296875 C-43.39792305 -10.84080658 -17.51068838 -11.92020475 0 0 Z " fill="#000000" transform="translate(217.9609375,92.015625)"/>
<path d="M0 0 C13.2 0 26.4 0 40 0 C40 55.77 40 111.54 40 169 C26.8 169 13.6 169 0 169 C-0.495 161.575 -0.495 161.575 -1 154 C-2.32 155.65 -3.64 157.3 -5 159 C-18.42914775 169.21782981 -31.57970879 171.19119329 -48 170 C-62.30667834 167.4633549 -73.81171645 159.67239027 -82.19921875 147.91796875 C-86.46641999 141.26870692 -89.87334469 134.62226952 -92 127 C-92.17587646 126.38479492 -92.35175293 125.76958984 -92.53295898 125.13574219 C-94.27523677 118.35875417 -94.3319611 111.71707203 -94.3125 104.75 C-94.32861328 103.61175781 -94.34472656 102.47351563 -94.36132812 101.30078125 C-94.36759782 90.25357064 -92.56990268 79.73790154 -87.4375 69.875 C-87.09380371 69.2054126 -86.75010742 68.5358252 -86.39599609 67.84594727 C-79.42112658 54.87107298 -68.55923593 45.5188986 -54.640625 40.7265625 C-41.48987973 37.10816217 -27.35578733 38.19423825 -14.875 43.625 C-11 46 -11 46 -1 55 C-0.67 36.85 -0.34 18.7 0 0 Z M-47.4375 83.3125 C-53.27129654 90.99201748 -54.62482576 100.22454569 -53.75 109.7109375 C-52.3201653 118.00908532 -49.51335146 124.26976384 -42.9765625 129.67578125 C-37.77650831 133.15961202 -33.43579148 134.55872175 -27.1875 134.5 C-26.48189941 134.49427979 -25.77629883 134.48855957 -25.04931641 134.48266602 C-17.01420146 134.20830074 -12.04256849 131.420655 -6.625 125.6875 C-0.40682839 117.64349406 0.83977681 107.72636767 -0.40234375 97.77734375 C-2.02645437 90.17573722 -4.77637905 84.19971284 -11.0625 79.4375 C-22.81115676 71.83542798 -37.6996505 72.93180958 -47.4375 83.3125 Z " fill="#000000" transform="translate(438,45)"/>
<path d="M0 0 C11.03866343 9.44399295 15.26990457 20.13654573 16.6875 34.3125 C4.4775 34.3125 -7.7325 34.3125 -20.3125 34.3125 C-21.6325 31.3425 -22.9525 28.3725 -24.3125 25.3125 C-30.61334655 20.6993802 -36.67009452 20.56324456 -44.3125 21.3125 C-47.86792252 22.15552993 -47.86792252 22.15552993 -50.3125 23.3125 C-50.4053125 25.1996875 -50.4053125 25.1996875 -50.5 27.125 C-50.53480469 27.83269531 -50.56960938 28.54039063 -50.60546875 29.26953125 C-50.22206233 31.94315204 -49.3503379 32.5762281 -47.3125 34.3125 C-39.14207389 38.53606968 -29.89479004 40.37892416 -21.03320312 42.58007812 C-7.58254187 46.04788873 5.38877012 51.08926866 13.1875 63.25 C18.1929265 72.48317375 18.85210836 81.61858167 16.1875 91.6875 C12.77642663 102.01646953 6.25079998 109.25238454 -3.3125 114.3125 C-20.18682694 122.46617478 -41.04581372 122.81767347 -58.8671875 117.56640625 C-71.69523529 112.89769498 -83.34136453 104.4407658 -89.4609375 91.97265625 C-92.02690204 86.06729814 -92.55401904 82.13882862 -93.3125 75.3125 C-80.1125 75.3125 -66.9125 75.3125 -53.3125 75.3125 C-51.9925 78.2825 -50.6725 81.2525 -49.3125 84.3125 C-43.32111536 88.59206046 -38.58207596 89.7971384 -31.3125 89.3125 C-26.75118854 88.11649609 -23.98782141 87.32548212 -21.3125 83.3125 C-21.62980524 79.67310068 -21.62980524 79.67310068 -22.3125 76.3125 C-31.26746976 72.69458958 -40.21415175 69.69414291 -49.5625 67.25 C-64.09906805 63.41701163 -76.88842644 59.55032988 -85.3125 46.3125 C-89.8351155 38.35893482 -90.15496691 28.95064398 -88.3125 20.125 C-85.28550805 9.74282851 -78.14613533 1.29336376 -68.8515625 -4.12109375 C-47.90632315 -14.47086744 -19.08491845 -14.33540916 0 0 Z " fill="#000000" transform="translate(590.3125,94.6875)"/>
<path d="M0 0 C13.53 0 27.06 0 41 0 C41.06788027 19.18540023 41.12307651 38.37070231 41.15543652 57.5561924 C41.17086526 66.46556542 41.19187787 75.37485819 41.22631836 84.28417969 C41.25634358 92.05507063 41.27560397 99.82590341 41.28226548 107.59685075 C41.28615565 111.70650271 41.29521347 115.81598837 41.31719017 119.9255867 C41.3377634 123.804678 41.3437924 127.6835367 41.33932304 131.56267738 C41.34013904 132.97586016 41.34597942 134.38905186 41.35761642 135.80218697 C41.48281924 151.81018003 39.39060879 165.96807045 28.2734375 177.953125 C17.57338659 187.58684781 2.59169178 188.19910236 -11.0625 188.0625 C-15.4865625 188.0315625 -15.4865625 188.0315625 -20 188 C-20 176.45 -20 164.9 -20 153 C-14.72 152.34 -9.44 151.68 -4 151 C-2.515 150.01 -2.515 150.01 -1 149 C-0.53512896 146.31260776 -0.53512896 146.31260776 -0.60127258 143.10287476 C-0.58873444 141.84641647 -0.57619629 140.58995819 -0.5632782 139.29542542 C-0.56445238 137.89535497 -0.56591159 136.49528473 -0.56762695 135.09521484 C-0.55861489 133.62694978 -0.54828904 132.15869227 -0.53674316 130.69044495 C-0.50908146 126.69686943 -0.4998763 122.70343629 -0.49388909 118.70977736 C-0.48452916 114.53901455 -0.45832782 110.36835911 -0.43388367 106.19766235 C-0.3901492 98.29644786 -0.361645 90.39525412 -0.33856028 82.49395525 C-0.31154574 73.50006443 -0.26763202 64.50628124 -0.22227156 55.51246715 C-0.12932577 37.00835403 -0.05992181 18.50425156 0 0 Z " fill="#000000" transform="translate(46,86)"/>
<path d="M0 0 C4.92452431 3.32938649 9.80423108 8.47573462 11.07421875 14.40234375 C11.83574271 21.35276087 11.05687347 26.59052188 7.07421875 32.40234375 C2.74127513 37.5334612 -2.20697824 40.60248625 -8.92578125 41.40234375 C-16.37550389 41.89899193 -22.8940409 40.96248005 -28.73828125 36.02734375 C-29.82109375 34.72796875 -29.82109375 34.72796875 -30.92578125 33.40234375 C-31.66828125 32.53609375 -32.41078125 31.66984375 -33.17578125 30.77734375 C-36.99350514 25.59614704 -36.46696639 19.5749917 -35.92578125 13.40234375 C-34.16878801 6.65414679 -29.76595714 2.87673411 -23.92578125 -0.59765625 C-16.45598591 -4.24955619 -7.33770748 -3.7017878 0 0 Z " fill="#000000" transform="translate(78.92578125,33.59765625)"/>
</svg>
