<?xml version="1.0" encoding="UTF-8"?>
<svg version="1.1" xmlns="http://www.w3.org/2000/svg" width="704" height="295">
<path d="M0 0 C3.57731669 3.13015211 6.81674017 6.4743178 10 10 C10.99 10.99 10.99 10.99 12 12 C12.721875 11.030625 13.44375 10.06125 14.1875 9.0625 C21.4366737 0.65072297 31.39516727 -5.02568965 42 -8 C42.6084375 -8.19078125 43.216875 -8.3815625 43.84375 -8.578125 C58.37839683 -11.42186025 73.77917733 -8.08984036 86 0 C96.74733949 7.5629426 102.08898548 18.41690499 105 31 C105.87005014 36.13346601 106.13870784 41.12766583 106.11352539 46.32202148 C106.11367142 47.12283646 106.11381744 47.92365143 106.1139679 48.74873352 C106.11327605 51.37288199 106.105518 53.99695781 106.09765625 56.62109375 C106.09578948 58.44954896 106.0943668 60.27800468 106.09336853 62.10646057 C106.08956374 66.90190021 106.07975097 71.69730922 106.06866455 76.49273682 C106.05660061 82.25559608 106.05203848 88.01846563 106.04621124 93.78133392 C106.03653803 102.52091054 106.01736724 111.26042003 106 120 C92.8 120 79.6 120 66 120 C65.96261719 114.77414063 65.92523438 109.54828125 65.88671875 104.1640625 C65.85641355 100.83720772 65.82524908 97.51040478 65.79101562 94.18359375 C65.73685747 88.91262547 65.68574158 83.64175975 65.65356445 78.37060547 C65.62739844 74.11696238 65.58690395 69.86366717 65.53681374 65.61024094 C65.52023437 63.99413787 65.50866484 62.37797476 65.50238609 60.76179886 C65.9444115 46.55794991 65.9444115 46.55794991 60.34379578 34.07485962 C54.18051322 28.21461113 47.41246821 27.59480415 39.1953125 27.75390625 C33.49723667 28.19275561 29.04192972 29.48260482 25.125 33.875 C20.50926637 40.66284357 19.89405536 47.19834901 19.79467773 55.29052734 C19.78477814 55.99366058 19.77487854 56.69679382 19.76467896 57.42123413 C19.73330127 59.72610198 19.70840131 62.03099038 19.68359375 64.3359375 C19.66300368 65.94162506 19.64200669 67.54730746 19.62062073 69.15298462 C19.565612 73.36476435 19.51610987 77.57659127 19.46777344 81.78845215 C19.40853592 86.84967675 19.34242538 91.91081573 19.27747345 96.9719696 C19.17973092 104.64792713 19.0906925 112.32394136 19 120 C5.8 120 -7.4 120 -21 120 C-21.03738281 114.52277344 -21.07476562 109.04554688 -21.11328125 103.40234375 C-21.14356991 99.9250992 -21.17472359 96.44790527 -21.20898438 92.97070312 C-21.2632401 87.45583695 -21.31435282 81.94107094 -21.34643555 76.42602539 C-21.37251261 71.97788623 -21.412946 67.53008478 -21.46318626 63.08215523 C-21.47982526 61.38821182 -21.49135798 59.69421003 -21.49761391 58.00019646 C-21.50728752 55.62078624 -21.53538437 53.24223422 -21.56762695 50.86303711 C-21.56619186 50.16819717 -21.56475677 49.47335724 -21.5632782 48.75746155 C-21.68163816 42.55055107 -23.30533628 38.07125565 -27.25 33.25 C-33.71702281 27.95879952 -39.2350136 27.38787839 -47.48046875 27.58984375 C-53.36178289 28.27523552 -58.57857642 30.10720597 -62.46484375 34.75 C-65.76229155 40.19489602 -66.15400839 45.22289719 -66.20532227 51.43066406 C-66.21522186 52.17251953 -66.22512146 52.914375 -66.23532104 53.67871094 C-66.26684147 56.12431679 -66.29165595 58.56994205 -66.31640625 61.015625 C-66.33698395 62.7138519 -66.35798064 64.41207377 -66.37937927 66.11029053 C-66.43451567 70.5752759 -66.48396207 75.04030685 -66.53222656 79.50537109 C-66.5913462 84.86523411 -66.65752771 90.22501402 -66.72252655 95.58480835 C-66.82042996 103.72315471 -66.90935855 111.86155492 -67 120 C-80.2 120 -93.4 120 -107 120 C-107 77.76 -107 35.52 -107 -8 C-93.8 -8 -80.6 -8 -67 -8 C-66.505 -1.565 -66.505 -1.565 -66 5 C-64.88625 3.948125 -63.7725 2.89625 -62.625 1.8125 C-45.06775599 -13.48428755 -18.98885517 -12.32744227 0 0 Z " fill="#FEFEFE" transform="translate(247,88)"/>
<path d="M0 0 C13.2 0 26.4 0 40 0 C40 55.77 40 111.54 40 169 C26.8 169 13.6 169 0 169 C-0.495 161.575 -0.495 161.575 -1 154 C-1.598125 154.845625 -2.19625 155.69125 -2.8125 156.5625 C-10.11319462 165.29024257 -21.03933587 169.43615055 -32 171 C-47.76194014 172.06444271 -62.12638874 168.11815233 -74.3125 157.8125 C-86.82710703 145.83939039 -93.75706436 128.51817911 -94.43359375 111.3515625 C-94.45690927 109.10949585 -94.45782842 106.86709572 -94.4375 104.625 C-94.42992676 103.44542725 -94.42235352 102.26585449 -94.41455078 101.05053711 C-94.06581564 82.56121092 -88.05723812 66.39583749 -75 53 C-61.79525415 41.52986773 -47.23694265 39.19358518 -30.40234375 39.82519531 C-20.9430187 40.51349579 -12.34297275 45.19083899 -5 51 C-3.68 52.65 -2.36 54.3 -1 56 C-0.67 37.52 -0.34 19.04 0 0 Z M-46.875 83.8125 C-53.29409877 91.92552761 -54.57117832 100.60583697 -53.78515625 110.78125 C-52.32255402 119.80759516 -47.89646579 125.60681665 -41.16015625 131.5546875 C-34.74628021 135.8460693 -27.43325797 135.73605611 -20 135 C-12.24676568 132.70870871 -7.10000051 127.02575008 -3.07421875 120.21875 C1.08244432 111.63335136 0.99236442 101.16602437 -1.90625 92.1953125 C-4.96849616 85.38802204 -9.6030126 80.22840518 -16.296875 76.8359375 C-27.22823083 73.45543151 -39.03157113 75.43207289 -46.875 83.8125 Z " fill="#FEFEFE" transform="translate(465,39)"/>
<path d="M0 0 C1.07765625 -0.020625 2.1553125 -0.04125 3.265625 -0.0625 C16.29643397 -0.12529908 28.64998763 3.59686572 39.1875 11.5 C48.47768496 21.00623577 53.875 31.96367973 53.875 45.25 C41.995 45.25 30.115 45.25 17.875 45.25 C16.225 42.28 14.575 39.31 12.875 36.25 C8.00324049 32.59618037 5.47530596 32.09659923 -0.4375 32.0625 C-2.10232422 32.04123047 -2.10232422 32.04123047 -3.80078125 32.01953125 C-7.2211836 32.25666843 -9.93473443 33.02891499 -13.125 34.25 C-13.63069938 39.1725414 -13.63069938 39.1725414 -11.4206543 43.35668945 C-5.34645979 48.36630111 3.54332304 49.78075866 11.02246094 51.73486328 C27.38649193 56.01394883 40.28425109 60.31480406 50.875 74.25 C56.19722918 85.08453798 55.95546253 94.87134001 52.125 106.203125 C48.054434 116.12512962 40.09753718 121.8127362 30.6875 126.5 C13.01382421 133.70613846 -7.70071818 132.96233706 -25.5 126.5 C-37.68031537 121.10469252 -46.93102889 112.48610479 -52.8984375 100.66796875 C-54.56189398 96.03254067 -55.24401363 91.09542505 -56.125 86.25 C-42.925 86.25 -29.725 86.25 -16.125 86.25 C-14.805 88.89 -13.485 91.53 -12.125 94.25 C-7.31790794 98.82259976 -3.6944778 99.40336056 2.8125 99.4375 C4.03839844 99.45167969 5.26429688 99.46585937 6.52734375 99.48046875 C9.65532896 99.26512321 11.30726312 98.96793825 13.875 97.25 C15.70509944 94.80986741 15.87224135 93.31620751 16 90.25 C14.6222729 86.57606107 13.05343177 85.92964133 9.59912109 84.30761719 C2.9453933 81.72436313 -4.08500164 80.11512903 -10.98730469 78.328125 C-24.587648 74.7840616 -39.05863268 70.41671081 -47.49609375 58.27734375 C-52.28036214 49.46237305 -53.09279406 40.02072312 -51.125 30.25 C-46.60419524 18.41244662 -40.09358841 11.44006524 -29.125 5.25 C-19.35276493 1.17338227 -10.49106711 0.04913849 0 0 Z " fill="#FEFEFE" transform="translate(580.125,78.75)"/>
<path d="M0 0 C5.67830078 -0.02464705 11.35657069 -0.04283462 17.03491211 -0.05493164 C18.96818585 -0.05997256 20.90145576 -0.06680519 22.8347168 -0.07543945 C25.60726872 -0.08751565 28.37977041 -0.09323057 31.15234375 -0.09765625 C32.45702858 -0.10539818 32.45702858 -0.10539818 33.78807068 -0.11329651 C35.85905814 -0.11349185 37.92994324 -0.06208168 40 0 C41.75926092 1.75926092 41.13381114 4.25062881 41.14044189 6.63796997 C41.14615204 7.86296204 41.15186218 9.0879541 41.15774536 10.35006714 C41.15899094 11.72051992 41.16011599 13.09097281 41.16113281 14.46142578 C41.16575914 15.89534636 41.17078355 17.3292657 41.17617798 18.76318359 C41.18933596 22.67309727 41.19575541 26.58299374 41.20018864 30.49292612 C41.20311848 32.93986524 41.20722348 35.38679966 41.21169281 37.83373642 C41.22538673 45.50055041 41.23503982 53.16735366 41.2388947 60.83417904 C41.24335759 69.66120592 41.26081457 78.48807656 41.2898953 87.31505597 C41.31161557 94.14752898 41.32160473 100.97995843 41.32293582 107.81246555 C41.32397798 111.88691067 41.32975699 115.96120932 41.34775543 120.03561783 C41.36441201 123.8819101 41.36630784 127.72794873 41.35761642 131.57426453 C41.3568549 132.97412172 41.36106937 134.37399351 41.37107468 135.77381516 C41.47083772 150.62259279 40.18581243 165.32715243 29.8125 176.75 C15.8160833 189.75312261 -3.26113095 188.42292205 -21 188 C-21.0246519 183.17619198 -21.04283693 178.35242033 -21.05493164 173.52856445 C-21.05997174 171.88630536 -21.06680378 170.24405077 -21.07543945 168.60180664 C-21.08751926 166.24624521 -21.09323139 163.89074291 -21.09765625 161.53515625 C-21.10281754 160.79660904 -21.10797882 160.05806183 -21.11329651 159.2971344 C-21.1134925 157.53101912 -21.06194719 155.76502854 -21 154 C-18.87559668 151.87559668 -13.62868793 152.65007446 -10.63476562 152.5703125 C-6.44732152 152.37383418 -3.95770068 152.0251402 -1 149 C-0.39127255 146.21714207 -0.39127255 146.21714207 -0.48101807 142.98262024 C-0.46014885 141.09587082 -0.46014885 141.09587082 -0.43885803 139.17100525 C-0.44357129 137.77456536 -0.44866527 136.37812671 -0.45410156 134.98168945 C-0.44536888 133.51327416 -0.43488416 132.04486839 -0.42277527 130.57647705 C-0.39485684 126.58703715 -0.39151185 122.59790684 -0.39249516 118.60838342 C-0.38937104 114.44028259 -0.36376335 110.27232224 -0.34051514 106.10429382 C-0.29991303 98.21017651 -0.27960458 90.31614189 -0.26654124 82.42193621 C-0.25068541 73.43526443 -0.21227583 64.44873365 -0.17194796 55.46214354 C-0.08949144 36.97480691 -0.03543532 18.48748353 0 0 Z " fill="#FEFEFE" transform="translate(73,80)"/>
<path d="M0 0 C1.19246508 0.73028911 2.36160364 1.500497 3.5 2.3125 C4.06332031 2.68632812 4.62664062 3.06015625 5.20703125 3.4453125 C9.13881915 6.33436346 11.42953 9.5971239 12.5 14.3125 C13.36514522 21.45795871 12.84807219 27.42905513 8.5 33.3125 C3.89513553 38.68687763 -1.54250546 41.25771949 -8.5 42.3125 C-15.36060161 42.54182373 -21.95163623 41.57674464 -27.5 37.3125 C-33.65152012 30.65059175 -34.82248256 25.45431272 -34.703125 16.47265625 C-34.31379101 10.41551782 -31.92586935 7.53877543 -27.625 3.5625 C-20.24740968 -2.86034334 -8.94169259 -4.27194984 0 0 Z " fill="#FEFEFE" transform="translate(104.5,27.6875)"/>
<path d="" fill="#FFFFFF" transform="translate(0,0)"/>
<path d="" fill="#000000" transform="translate(0,0)"/>
<path d="" fill="#FFFFFF" transform="translate(0,0)"/>
<path d="" fill="#FFFFFF" transform="translate(0,0)"/>
<path d="" fill="#FFFFFF" transform="translate(0,0)"/>
<path d="" fill="#FFFFFF" transform="translate(0,0)"/>
<path d="" fill="#FFFFFF" transform="translate(0,0)"/>
<path d="" fill="#FFFFFF" transform="translate(0,0)"/>
<path d="" fill="#FFFFFF" transform="translate(0,0)"/>
<path d="" fill="#FFFFFF" transform="translate(0,0)"/>
</svg>
