<?xml version="1.0" encoding="UTF-8"?>
<svg version="1.1" xmlns="http://www.w3.org/2000/svg" width="1406" height="1875">
<path d="M0 0 C1.18932129 0.00418945 2.37864258 0.00837891 3.60400391 0.01269531 C12.36235665 0.12511989 20.29112063 0.92825704 28.75 3.3125 C30.3278125 3.69535156 30.3278125 3.69535156 31.9375 4.0859375 C46.1532829 7.88378146 58.98298536 15.37230389 69.75 25.3125 C70.40226563 25.89644531 71.05453125 26.48039063 71.7265625 27.08203125 C76.52314099 31.59335067 80.12513707 36.84173062 83.75 42.3125 C84.41 43.3025 85.07 44.2925 85.75 45.3125 C86.28367187 44.63445313 86.81734375 43.95640625 87.3671875 43.2578125 C103.22239911 23.45251357 122.56350494 7.83008632 147.75 2.3125 C148.83051636 2.04977295 148.83051636 2.04977295 149.93286133 1.78173828 C156.83767124 0.21306329 163.49962824 0.0027717 170.5625 0.0625 C172.29270386 0.07265137 172.29270386 0.07265137 174.05786133 0.08300781 C181.82597669 0.17755992 189.16350259 0.54299524 196.75 2.3125 C197.91789062 2.55742188 199.08578125 2.80234375 200.2890625 3.0546875 C223.1935699 8.41329896 243.5057461 22.15980713 256.4375 41.88671875 C257.9356757 44.33249058 259.3582777 46.80489226 260.75 49.3125 C261.10707031 49.9209375 261.46414063 50.529375 261.83203125 51.15625 C271.15275418 68.08951557 273.23216159 88.4199091 273.09057617 107.38891602 C273.08972702 109.01701847 273.09021064 110.64512208 273.09190369 112.27322388 C273.09275384 116.6337527 273.07528977 120.99402684 273.05418181 125.35449719 C273.0352488 129.93349699 273.03365162 134.51250457 273.03010559 139.09153748 C273.02083343 147.7360644 272.99628605 156.38047559 272.96605712 165.02495188 C272.92604367 176.72496007 272.91001915 188.42500058 272.89255047 200.12506008 C272.86446066 218.52095983 272.80465928 236.91661554 272.75 255.3125 C247.34 255.3125 221.93 255.3125 195.75 255.3125 C195.71261719 245.00773437 195.67523437 234.70296875 195.63671875 224.0859375 C195.6064282 217.54165343 195.57539346 210.99738677 195.54101562 204.453125 C195.48663664 194.07521173 195.43521919 183.69734674 195.40356445 173.31933594 C195.38049107 165.7593199 195.34699001 158.1994318 195.30129844 150.63951743 C195.27749131 146.64170262 195.25868105 142.64401353 195.25238609 138.64612961 C195.24627798 134.87201177 195.22607578 131.09821507 195.19572449 127.32421684 C195.18293702 125.30160655 195.18449842 123.27892086 195.1867218 121.25627136 C195.03436349 106.19684563 192.44811218 91.55509127 181.8984375 80.19921875 C175.65119427 74.71300333 168.05597212 70.39723517 159.75 69.3125 C158.8940625 69.18101562 158.038125 69.04953125 157.15625 68.9140625 C142.60129928 67.15338298 130.13373095 69.53586336 117.75 77.3125 C116.73885278 78.30122711 115.73435338 79.29709446 114.75 80.3125 C114.09 80.3125 113.43 80.3125 112.75 80.3125 C112.32847656 81.19808594 112.32847656 81.19808594 111.8984375 82.1015625 C110.85094061 84.11817216 109.68773963 85.83963084 108.375 87.6875 C101.98335333 97.98791257 101.15831432 109.65594782 101.2199707 121.47192383 C101.21285167 122.93048516 101.20397907 124.38903881 101.19351196 125.84757996 C101.17016347 129.76001106 101.17059964 133.67210556 101.17542672 137.58458924 C101.17602478 141.69209143 101.15326463 145.79946415 101.13285828 149.90690613 C101.09761837 157.66489449 101.0814593 165.42278947 101.0730831 173.18084878 C101.06005416 184.5982179 101.02184465 196.01551088 100.97898388 207.43280315 C100.97584519 208.26961788 100.97270651 209.1064326 100.96947271 209.96860534 C100.96319363 211.63604342 100.95685009 213.30348125 100.95044011 214.97091883 C100.93235819 219.85792687 100.92126495 224.74488873 100.91614306 229.63192713 C100.91232412 232.65732227 100.90471791 235.68270044 100.8963356 238.70808601 C100.89336498 240.11543774 100.89214181 241.52279435 100.89274788 242.93014908 C100.89341026 244.84270338 100.88755236 246.7552567 100.88130188 248.6678009 C100.8800446 249.74009854 100.87878733 250.81239618 100.87749195 251.91718769 C100.75 254.3125 100.75 254.3125 99.75 255.3125 C97.34651714 255.40746708 94.97189018 255.43808862 92.56811523 255.42602539 C91.4413588 255.42624443 91.4413588 255.42624443 90.2918396 255.4264679 C87.79739541 255.42576863 85.30302497 255.41797564 82.80859375 255.41015625 C81.08366436 255.40829212 79.35873443 255.40686819 77.63380432 255.40586853 C73.08487497 255.40204297 68.53597733 255.39221238 63.98706055 255.38116455 C59.34879994 255.37095124 54.71053423 255.36637108 50.07226562 255.36132812 C40.96482978 255.35059014 31.85741752 255.33351327 22.75 255.3125 C22.74761165 254.57811392 22.74522329 253.84372784 22.74276257 253.08708763 C22.6834614 235.16493586 22.60781553 217.24292002 22.51428509 199.32091331 C22.46944176 190.65373328 22.43000109 181.98659328 22.40356445 173.31933594 C22.38049107 165.7593199 22.34699001 158.1994318 22.30129844 150.63951743 C22.27749131 146.64170262 22.25868105 142.64401353 22.25238609 138.64612961 C22.24627798 134.87201177 22.22607578 131.09821507 22.19572449 127.32421684 C22.18293702 125.30160655 22.18449842 123.27892086 22.1867218 121.25627136 C22.03436349 106.19684563 19.44811218 91.55509127 8.8984375 80.19921875 C2.65119427 74.71300333 -4.94402788 70.39723517 -13.25 69.3125 C-14.1059375 69.18101562 -14.961875 69.04953125 -15.84375 68.9140625 C-30.39870072 67.15338298 -42.86626905 69.53586336 -55.25 77.3125 C-56.26114722 78.30122711 -57.26564662 79.29709446 -58.25 80.3125 C-58.91 80.3125 -59.57 80.3125 -60.25 80.3125 C-60.53101563 80.90289063 -60.81203125 81.49328125 -61.1015625 82.1015625 C-62.14905939 84.11817216 -63.31226037 85.83963084 -64.625 87.6875 C-71.01664667 97.98791257 -71.84168568 109.65594782 -71.7800293 121.47192383 C-71.78714833 122.93048516 -71.79602093 124.38903881 -71.80648804 125.84757996 C-71.82983653 129.76001106 -71.82940036 133.67210556 -71.82457328 137.58458924 C-71.82397522 141.69209143 -71.84673537 145.79946415 -71.86714172 149.90690613 C-71.90238163 157.66489449 -71.9185407 165.42278947 -71.9269169 173.18084878 C-71.93994584 184.5982179 -71.97815535 196.01551088 -72.02101612 207.43280315 C-72.02415481 208.26961788 -72.02729349 209.1064326 -72.03052729 209.96860534 C-72.03680637 211.63604342 -72.04314991 213.30348125 -72.04955989 214.97091883 C-72.06764181 219.85792687 -72.07873505 224.74488873 -72.08385694 229.63192713 C-72.08767588 232.65732227 -72.09528209 235.68270044 -72.1036644 238.70808601 C-72.10663502 240.11543774 -72.10785819 241.52279435 -72.10725212 242.93014908 C-72.10658974 244.84270338 -72.11244764 246.7552567 -72.11869812 248.6678009 C-72.1199554 249.74009854 -72.12121267 250.81239618 -72.12250805 251.91718769 C-72.25 254.3125 -72.25 254.3125 -73.25 255.3125 C-98.66 255.3125 -124.07 255.3125 -150.25 255.3125 C-150.25 172.1525 -150.25 88.9925 -150.25 3.3125 C-124.51 3.3125 -98.77 3.3125 -72.25 3.3125 C-71.92 12.5525 -71.59 21.7925 -71.25 31.3125 C-67.785 27.3525 -67.785 27.3525 -64.25 23.3125 C-47.13172467 6.87895568 -23.24036824 -0.11203353 0 0 Z " fill="#FFFFFF" transform="translate(430.25,837.6875)"/>
<path d="M0 0 C25.74 0 51.48 0 78 0 C78 110.22 78 220.44 78 334 C52.59 334 27.18 334 1 334 C-0.91219585 332.08780415 -0.24435298 328.66354496 -0.31640625 326.12109375 C-0.33718735 325.4344313 -0.35796844 324.74776886 -0.37937927 324.04029846 C-0.44494143 321.83947065 -0.50379015 319.63852025 -0.5625 317.4375 C-0.60567892 315.94855486 -0.649293 314.45962227 -0.69335938 312.97070312 C-0.8006293 309.31393447 -0.90187772 305.65702682 -1 302 C-2.05030396 303.34288086 -2.05030396 303.34288086 -3.12182617 304.71289062 C-17.98814007 323.57858822 -38.41825885 333.52991062 -62 337 C-76.62572988 337.75894188 -91.87029407 338.28906618 -106 334 C-107.14597656 333.6596875 -108.29195312 333.319375 -109.47265625 332.96875 C-122.75117474 328.61610163 -134.48690753 322.19667046 -145 313 C-145.71027344 312.44441406 -146.42054688 311.88882812 -147.15234375 311.31640625 C-172.05653996 291.09582017 -183.78706573 257.52380354 -187.25 226.625 C-190.87632141 189.30553874 -184.73987223 148.76854475 -160.9375 118.625 C-159.63169485 117.07765864 -158.31965353 115.53554776 -157 114 C-156.48308594 113.33871094 -155.96617187 112.67742187 -155.43359375 111.99609375 C-147.72915709 102.43795805 -136.78181322 94.70905848 -126 89 C-124.85144531 88.35998047 -124.85144531 88.35998047 -123.6796875 87.70703125 C-100.42529105 75.86113964 -69.8695139 74.87947252 -45.078125 82.06640625 C-29.38510003 87.34972466 -8.79689262 97.40621476 -1 113 C0.2598152 90.50370574 0.11908446 68.0130916 0.06866455 45.4899292 C0.05643888 39.43628324 0.05201072 33.38262673 0.04621124 27.32897186 C0.03664329 18.21929336 0.01743294 9.10968207 0 0 Z M-93 162 C-104.34191548 175.4438921 -108.4000637 189.46492596 -108.3125 206.75 C-108.30686035 207.90580566 -108.3012207 209.06161133 -108.29541016 210.25244141 C-108.04964774 227.48744313 -103.29217281 242.36696971 -91 255 C-77.96598311 266.42735842 -64.18016958 269.87257614 -47.26220703 269.18359375 C-34.29752545 268.13142015 -22.83117482 261.20318402 -14 252 C-1.70256325 237.35666668 2.10953346 219.03506995 0.60571289 200.30639648 C-1.21006977 182.15433427 -8.17552075 168.11745659 -22 156 C-42.80208895 139.78843167 -75.15988006 142.80707476 -93 162 Z " fill="#FFFFFF" transform="translate(929,759)"/>
<path d="M0 0 C16.38217861 15.25237319 24.40215625 37.16218748 26.578125 58.921875 C2.818125 58.921875 -20.941875 58.921875 -45.421875 58.921875 C-47.071875 54.961875 -48.721875 51.001875 -50.421875 46.921875 C-54.48854193 41.49965242 -58.16460981 37.56525029 -64.421875 34.921875 C-65.11539062 34.62410156 -65.80890625 34.32632813 -66.5234375 34.01953125 C-76.85302492 30.27116926 -89.10958349 30.41126571 -99.2109375 34.71875 C-103.1715919 36.87401777 -105.52923338 39.34912549 -107.734375 43.234375 C-109.12646307 48.67617383 -109.24794243 53.03838702 -106.671875 58.046875 C-98.11472469 70.08330621 -76.47497433 72.3529141 -63.203125 75.796875 C-12.85185022 88.91228805 -12.85185022 88.91228805 2.578125 101.921875 C3.37992188 102.57929687 4.18171875 103.23671875 5.0078125 103.9140625 C18.43826613 115.38505785 26.25098635 129.75938917 27.79931641 147.44897461 C28.68563505 166.88198228 25.05093923 183.57320463 12.578125 198.921875 C11.95550781 199.76298828 11.95550781 199.76298828 11.3203125 200.62109375 C-4.09763869 220.42439034 -30.24337567 227.63487963 -53.875 231.484375 C-60.62185672 232.28566054 -67.44891151 232.16459182 -74.234375 232.171875 C-74.96875793 232.17321442 -75.70314087 232.17455383 -76.45977783 232.17593384 C-88.02395386 232.17136077 -99.11630625 231.47093852 -110.421875 228.921875 C-111.42992187 228.7053125 -112.43796875 228.48875 -113.4765625 228.265625 C-139.1802119 222.00734515 -164.19342501 206.83639853 -178.36669922 184.17382812 C-186.16685932 171.24040975 -189.25002428 160.15593433 -190.421875 144.921875 C-165.011875 144.921875 -139.601875 144.921875 -113.421875 144.921875 C-112.101875 148.881875 -110.781875 152.841875 -109.421875 156.921875 C-107.936875 158.901875 -107.936875 158.901875 -106.421875 160.921875 C-106.421875 161.581875 -106.421875 162.241875 -106.421875 162.921875 C-105.6484375 163.2621875 -105.6484375 163.2621875 -104.859375 163.609375 C-102.76089262 164.73932705 -101.10850864 165.91236949 -99.234375 167.359375 C-88.81770205 174.92094273 -75.64011196 174.51502526 -63.421875 172.921875 C-56.75011977 171.01045809 -51.12123279 167.81078325 -47.546875 161.734375 C-45.79286133 155.79021757 -46.36608394 151.30888088 -48.859375 145.671875 C-54.99685716 139.08530878 -64.5089086 136.67504855 -72.921875 134.171875 C-74.02265381 133.83752441 -75.12343262 133.50317383 -76.25756836 133.15869141 C-85.77535097 130.31275544 -95.3713353 127.79670831 -104.984375 125.296875 C-131.23296642 118.46491651 -159.1518532 110.30230344 -174.796875 86.109375 C-183.76797334 69.99697742 -184.71453792 49.67453276 -180.328125 32.02734375 C-174.29798545 11.36371902 -160.61024189 -3.64399196 -141.99609375 -13.98046875 C-97.59232221 -36.15809016 -38.12016282 -32.70955906 0 0 Z " fill="#FFFFFF" transform="translate(1239.421875,864.078125)"/>
<path d="M0 0 C25.74 0 51.48 0 78 0 C78.06623596 37.64002964 78.12159003 75.28000397 78.15319599 112.92007529 C78.15694775 117.37192855 78.16083075 121.82378169 78.16479492 126.27563477 C78.16558185 127.16185407 78.16636878 128.04807337 78.16717956 128.96114781 C78.18020495 143.27815402 78.20384285 157.5951238 78.23145839 171.91210846 C78.25959263 186.62156935 78.27619315 201.33101127 78.28226548 216.04049796 C78.28636536 225.10438639 78.29927638 234.16817181 78.3237494 243.23202851 C78.33970579 249.46205412 78.34437816 255.69202709 78.34050413 261.92207161 C78.33859785 265.50719263 78.34135179 269.09213467 78.35761642 272.67722321 C78.47725451 300.49246133 77.48303197 327.92848213 57.25 349.25 C35.11229563 370.32082705 6.18220432 372.19469908 -22.6875 372.0625 C-29.060625 372.041875 -35.43375 372.02125 -42 372 C-42 350.22 -42 328.44 -42 306 C-35.4 305.67 -28.8 305.34 -22 305 C-12.12859829 304.09260586 -12.12859829 304.09260586 -4 299 C-0.78045852 292.27802751 -0.5690279 286.36698257 -0.60127258 278.99047852 C-0.59462576 277.79532938 -0.58797893 276.60018024 -0.58113068 275.36881447 C-0.56575459 272.06887051 -0.56365379 268.76940999 -0.56726015 265.46946502 C-0.56788566 261.90443681 -0.55124839 258.33948329 -0.53674316 254.77449036 C-0.51398158 248.60370323 -0.50207628 242.43297245 -0.49761391 236.262146 C-0.49114634 227.34026121 -0.46819829 218.4184782 -0.44127061 209.49663448 C-0.39802444 195.02039435 -0.3680453 180.54415851 -0.34643555 166.06787109 C-0.32541935 152.00827933 -0.29813866 137.94872266 -0.26245117 123.88916016 C-0.26025235 123.02204623 -0.25805352 122.15493231 -0.25578807 121.2615422 C-0.24471825 116.91134227 -0.23352547 112.56114268 -0.22227156 108.21094322 C-0.12911716 72.14065002 -0.05995387 36.07036667 0 0 Z " fill="#FFFFFF" transform="translate(147,841)"/>
<path d="M0 0 C10.62452034 -0.34630118 21.25966173 1.4479643 30.37109375 7.15234375 C31.03625 7.56097656 31.70140625 7.96960938 32.38671875 8.390625 C42.17925793 15.02488342 47.09593944 24.73594442 49.37109375 36.15234375 C50.58864894 47.04116118 48.73211267 58.12332295 42.16015625 67.05859375 C34.04502225 76.55578114 23.700575 83.24653268 11.0324707 84.35742188 C8.53724067 84.4556573 6.05567773 84.48153868 3.55859375 84.46484375 C2.6763916 84.4592041 1.79418945 84.45356445 0.88525391 84.44775391 C-12.46028031 84.19947633 -22.59140943 80.0659152 -32.44140625 70.96484375 C-41.59774363 61.4195646 -43.09921063 50.56783918 -42.90625 37.9765625 C-42.49384015 27.37906549 -37.95859527 19.33694142 -30.4765625 12.05859375 C-21.7018823 4.43585698 -11.53567561 0.6684864 0 0 Z " fill="#FFFFFF" transform="translate(182.62890625,730.84765625)"/>
</svg>
